<svg width="240" height="240" viewBox="0 0 240 240" fill="none" xmlns="http://www.w3.org/2000/svg">
    <path d="M182.559 107.36C181.877 107.687 181.349 108.507 180.403 107.939C180.282 107.52 180.099 106.895 179.921 106.27C179.743 105.639 179.502 105.031 179.364 104.618C178.699 103.93 178.596 104.888 178.211 105.014C177.93 104.205 177.655 103.402 177.466 103.471C177.099 103.253 176.95 103.471 176.904 103.872C176.864 104.274 176.955 104.916 177.162 105.702C178.028 106.362 178.802 107.446 179.565 108.524C179.961 109.063 180.271 109.62 180.586 110.119C180.896 110.618 181.188 111.071 181.446 111.426C181.968 112.126 182.318 112.442 182.565 111.902C182.697 111.633 182.748 111.162 182.76 110.423C182.76 110.056 182.754 109.62 182.731 109.109C182.72 108.857 182.708 108.581 182.68 108.289C182.645 108.002 182.605 107.692 182.559 107.365V107.36Z" fill="#FFAB40"/>
    <path d="M185.726 114.116C185.427 112.522 185.169 110.922 184.756 109.35C184.183 108.966 183.58 108.427 183.236 109.006C184.177 111.317 184.785 112.74 185.72 114.116H185.726Z" fill="#FFAB40"/>
    <path d="M177.26 89.287C177.363 89.2239 177.478 89.2526 177.753 90.0785C177.581 89.7975 177.438 89.5336 177.26 89.287C177.157 89.3386 177.042 89.4763 176.744 89.1608C178.682 91.7706 180.713 95.0399 182.244 98.4354C182.623 98.7968 183.001 99.1524 183.363 99.4678C181.573 95.1833 179.342 91.0765 176.749 87.4975C174.162 83.9127 171.22 80.8613 168.203 78.5957C169.155 79.5134 169.975 80.4139 170.778 81.2513C171.604 82.0715 172.298 82.9376 173.05 83.7521C173.428 84.1593 173.778 84.5838 174.122 85.0197C174.472 85.4556 174.822 85.8915 175.178 86.3389C175.895 87.2336 176.537 88.2316 177.265 89.2813L177.26 89.287Z" fill="#FFAB40"/>
    <path d="M61.7835 108.402C60.5561 113.725 60.7167 118.595 61.3132 123.292C61.1641 120.791 61.3017 118.268 61.4795 115.767C61.7491 113.283 62.0703 110.811 62.6095 108.46C63.6075 103.728 65.0643 99.3917 66.504 95.7266C64.5137 99.7645 62.9364 104.015 61.7835 108.402Z" fill="#FFAB40"/>
    <path d="M67.9317 145.232C67.6564 144.493 67.4843 143.741 67.2434 143.024C67.014 142.307 66.7731 141.607 66.5895 140.913C66.3888 140.219 66.1708 139.543 65.9586 138.883C65.7808 138.212 65.5915 137.552 65.3908 136.904C65.1786 136.262 65.0122 135.614 64.8459 134.983C64.6681 134.346 64.4903 133.721 64.3125 133.096C64.0257 131.84 63.6357 130.618 63.4005 129.385C63.997 134.444 65.3392 139.348 67.1574 144.016C67.3983 144.429 67.6506 144.86 67.9317 145.238V145.232Z" fill="#FFAB40"/>
    <path d="M64.5724 138.908C64.4061 138.191 64.2283 137.497 64.0448 136.808C63.8497 136.126 63.735 135.443 63.563 134.778C63.2073 133.447 62.9722 132.139 62.6567 130.866C62.1348 128.302 61.6128 125.819 61.3203 123.301C61.5096 128.956 62.7657 134.394 64.5782 138.908H64.5724Z" fill="#FFAB40"/>
    <path d="M132.52 46.613C135.067 46.6818 137.131 46.8195 138.755 47.0432C139.569 47.1464 140.28 47.2267 140.894 47.3414C141.502 47.4562 142.018 47.5651 142.448 47.6626C143.274 47.5996 144.381 47.4963 145.861 47.525C145.574 47.4332 145.265 47.3357 144.978 47.2497C139.735 46.0739 134.332 45.3856 128.884 45.2422C127.765 45.2938 126.675 45.3569 125.643 45.4372C124.61 45.5462 123.641 45.6953 122.758 45.8444L125.213 45.9247C126.027 45.9649 126.847 46.0452 127.662 46.1025C129.296 46.2 130.908 46.4352 132.52 46.6187V46.613Z" fill="#FFAB40"/>
    <path d="M142.449 47.6641C138.938 47.9967 140.625 48.3696 142.322 48.4728C144.032 48.5818 145.821 48.4326 142.449 47.6641Z" fill="#FFAB40"/>
    <path d="M111.604 58.6465C111.392 58.6866 111.174 58.7268 110.956 58.7669C110.342 58.9275 109.711 59.0881 109.098 59.2487C109.952 59.0422 110.761 58.8472 111.598 58.6465H111.604Z" fill="#FFAB40"/>
    <path d="M63.0267 83.0577C65.3038 79.6392 67.8217 76.3699 70.529 73.3242C64.8048 79.4499 60.2105 86.6826 57.8359 93.1983C58.2833 92.2749 58.9085 91.426 59.4132 90.537C59.7287 89.539 60.1474 88.2943 60.7783 87.0153C61.0881 86.3729 61.4035 85.6903 61.7878 85.025C62.1778 84.3654 62.5908 83.7058 63.0325 83.0577H63.0267Z" fill="#FFAB40"/>
    <path d="M141.671 58.7099C131.255 56.1804 120.558 56.3009 110.956 58.7672C101.073 60.5396 91.8046 64.6291 84.2851 70.3533C76.7541 76.0832 70.9898 83.3848 67.3706 91.0132C65.8047 94.3858 64.0955 98.418 62.7476 102.898C61.3711 107.366 60.4304 112.304 60.1322 117.26C59.9486 119.732 60.0174 122.215 60.1551 124.63C60.287 125.834 60.3788 127.033 60.5566 128.198C60.6541 128.777 60.7516 129.356 60.8491 129.93C60.9007 130.217 60.9524 130.498 60.9982 130.784C61.0613 131.065 61.1302 131.346 61.1933 131.622C62.1855 136.078 63.7915 140.007 65.6499 143.024C65.4319 142.313 65.2713 141.608 65.0935 140.919C64.9272 140.231 64.7092 139.566 64.5601 138.9C64.9387 139.841 65.386 140.73 65.7875 141.59C66.2005 142.451 66.6995 143.242 67.1469 144.005C71.2708 154.421 78.1823 163.392 86.9981 169.913C95.7909 176.446 106.442 180.536 117.575 181.448C118.401 181.499 119.181 181.511 119.927 181.511C120.678 181.465 121.401 181.396 122.123 181.339C122.846 181.298 123.557 181.161 124.303 181.086C124.676 181.046 125.049 181.012 125.433 180.983C125.817 180.943 126.213 180.891 126.62 180.863C129.918 180.57 133.147 180.031 136.273 179.159C136.273 179.113 136.222 179.079 136.124 179.056C139.365 178.155 142.519 176.968 145.531 175.528C148.542 174.089 151.415 172.379 154.088 170.389C159.44 166.437 164.086 161.476 167.688 155.694C171.169 150.366 174.025 144.567 175.683 138.407C175.838 137.828 176.004 137.409 176.176 137.076C176.331 136.744 176.492 136.497 176.658 136.273C176.985 135.832 177.318 135.488 177.593 134.713C178.689 131.616 179.423 128.788 179.905 125.794C180.392 122.8 180.547 119.628 180.214 115.849C180.214 115.849 180.616 115.791 180.817 115.763C180.765 115.476 180.713 115.189 180.662 114.919C180.604 114.65 180.553 114.386 180.501 114.128C180.409 113.617 180.34 113.141 180.295 112.711C181 113.503 177.371 104.569 177.921 105.774C178.208 106.382 181.29 109.38 181.548 109.919C181.783 110.469 183.879 105.457 185.434 112.711C185.841 113.491 185.147 115.619 185.439 115.115C185.715 114.61 185.439 115.115 185.434 115.115C185.434 115.115 185.434 115.115 185.439 115.115C185.583 115.694 185.721 116.21 185.852 116.709C185.858 116.772 185.87 116.829 185.875 116.887C185.881 116.881 185.893 116.881 185.898 116.875C186.501 119.336 186.988 120.844 187.682 122.37C187.642 121.544 187.659 120.718 187.573 119.898C187.504 119.072 187.436 118.252 187.367 117.426C187.676 117.707 187.975 117.885 188.244 117.684C188.307 117.822 188.376 117.954 188.439 118.109C188.502 118.854 188.554 119.474 188.554 119.474C188.732 119.703 188.904 119.875 189.07 119.99C189.363 121.08 189.569 122.347 189.799 123.609C189.953 124.882 190.103 126.144 190.234 127.228C190.424 129.402 190.647 130.882 191.112 130.228C191.364 129.718 191.45 128.611 191.473 127.165C191.468 126.442 191.41 125.634 191.364 124.768C191.336 124.337 191.319 123.89 191.278 123.437C191.233 122.984 191.181 122.519 191.129 122.043C191.198 121.814 191.261 121.55 191.307 121.275C191.491 123.758 191.846 123.764 192.19 123.506C192.523 123.253 192.907 122.731 192.993 124.263C193.005 128.335 192.839 132.431 192.116 136.457C191.387 140.552 190.343 144.424 189.053 148.118C188.709 149.035 188.411 149.959 188.038 150.854C187.665 151.748 187.298 152.643 186.931 153.532C186.524 154.404 186.116 155.276 185.715 156.142C185.313 157.014 184.837 157.845 184.407 158.694C182.6 162.067 180.558 165.302 178.235 168.439C175.901 171.559 173.268 174.559 170.303 177.444C169.77 177.949 169.271 178.471 168.72 178.941C165.755 181.654 162.566 183.954 159.245 185.973C157.593 187.005 155.861 187.883 154.128 188.766C153.239 189.168 152.356 189.569 151.461 189.971C150.572 190.372 149.643 190.694 148.725 191.049C149.138 190.734 149.574 190.412 150.022 190.097C144.16 192.391 138.08 194.078 131.851 195.202C124.228 196.687 116.29 196.831 108.375 195.655C100.46 194.445 92.5731 191.795 85.1913 187.636C77.4711 183.249 70.6686 177.565 64.9387 170.877C59.2202 164.183 54.5628 156.452 51.3623 147.871C54.1671 154.823 57.9182 161.304 62.4666 167.372C62.9713 168.061 63.4703 168.749 63.9693 169.431C64.5027 170.091 65.0362 170.751 65.5696 171.404C65.8392 171.731 66.0973 172.058 66.3783 172.374L67.2215 173.303C67.7893 173.917 68.3399 174.542 68.9192 175.127C68.3399 174.502 67.7893 173.848 67.2272 173.223L66.384 172.276L65.581 171.301C65.0476 170.653 64.5142 170.005 63.9808 169.363C63.4761 168.697 62.9713 168.038 62.4666 167.372C61.9733 166.718 61.5202 166.03 61.0785 165.342C60.6312 164.654 60.1723 163.971 59.7421 163.271C58.9277 161.849 58.0444 160.461 57.3159 159.004C56.9374 158.281 56.5588 157.564 56.186 156.847C55.8419 156.113 55.4977 155.385 55.1536 154.662C54.9815 154.301 54.8094 153.939 54.6374 153.578C54.4825 153.211 54.3277 152.844 54.1728 152.482C53.8573 151.754 53.5476 151.031 53.2379 150.309C50.869 144.51 49.1541 138.843 47.5481 133.853C47.5768 132.723 47.7488 132.706 47.6571 131.633C47.2613 127.865 47.2728 124.074 47.3817 120.426C47.4907 116.772 47.8463 113.285 48.0184 109.993C47.8177 109.958 48.5059 106.746 47.8808 107.727C47.9553 107.32 48.0299 106.912 48.1102 106.5C48.2077 106.092 48.3052 105.679 48.4027 105.261C48.6034 104.429 48.7985 103.586 49.0222 102.737C49.5212 101.056 49.9972 99.3299 50.6167 97.6494C51.173 95.9459 51.867 94.294 52.498 92.6536C52.8478 91.8449 53.192 91.0476 53.5304 90.2561C53.6967 89.8603 53.8688 89.4703 54.0351 89.0803C54.2129 88.696 54.3907 88.3174 54.5686 87.9446C54.884 87.2965 55.1823 86.6426 55.4748 85.983L56.3925 84.0157C56.6965 83.3561 56.9718 82.6793 57.2873 82.0197L58.2222 80.0294C70.9095 59.6046 93.6228 44.7722 120.764 43.1605C127.48 42.7934 135.275 43.6767 141.866 45.3515C131.989 43.5849 121.596 43.5218 111.489 45.4375C106.545 46.0398 101.767 47.1525 97.437 48.6954C93.0951 50.2096 89.2292 52.24 86.0173 54.477C85.2659 54.9874 84.5088 55.4807 83.7689 55.9969C83.0404 56.5303 82.3177 57.0637 81.5893 57.5972C90.6402 51.5632 100.873 47.4393 111.489 45.4433C117.328 44.7206 123.374 44.7091 129.236 45.2253C129.115 45.231 129.006 45.2368 128.88 45.2425C124.257 45.0991 119.605 45.3859 115 46.0512C110.641 46.4011 106.396 47.1353 102.45 48.2251C98.521 49.3665 94.8904 50.8119 91.7472 52.544C90.9557 52.9513 90.21 53.4503 89.4874 53.8976C87.9445 54.7924 86.4704 55.8076 84.9906 56.777C90.6574 53.3757 96.7086 50.6283 103.018 48.7126C106.93 47.5024 110.95 46.6478 115 46.0455C117.558 45.8448 120.162 45.7759 122.754 45.839C122.479 45.8849 122.192 45.9308 121.946 45.9824C121.378 46.0226 120.563 46.252 119.72 46.5388C118.877 46.837 118.005 47.1697 117.328 47.5941C115.963 48.4029 115.344 49.2059 116.978 49.3779C121.125 49.0682 125.725 49.0453 130.251 49.441C134.776 49.8253 139.221 50.6111 143.082 51.6091C144.997 52.1425 146.804 52.6243 148.381 53.1922C149.173 53.4675 149.93 53.7026 150.612 53.9665C151.295 54.2361 151.932 54.4884 152.505 54.7121C153.664 55.1538 154.553 55.5839 155.167 55.865C155.78 56.1518 156.107 56.3238 156.096 56.341C156.17 56.4902 155.826 56.4386 155.167 56.2435C154.507 56.0543 153.549 55.6757 152.345 55.2972C151.748 55.0964 151.1 54.8784 150.406 54.649C149.718 54.4081 148.966 54.2188 148.203 53.9779C146.684 53.4962 145.014 53.1004 143.363 52.6817C140.03 51.936 136.68 51.3453 134.214 51.1273C133.6 51.0642 133.038 51.0069 132.551 50.9552C132.063 50.9208 131.645 50.9036 131.312 50.8922C130.647 50.8635 130.32 50.8692 130.452 50.9094C131.226 51.0528 132.006 51.1617 132.769 51.3223C133.537 51.4829 134.306 51.6493 135.069 51.8099C133.572 51.7296 132.121 51.6493 130.778 51.7124C129.987 51.6837 129.144 51.5804 128.272 51.546C127.406 51.5001 126.517 51.4543 125.668 51.4084C124.813 51.3682 123.993 51.3969 123.253 51.4198C122.513 51.4543 121.86 51.4829 121.338 51.6149C117.69 52.2687 113.853 52.8308 109.935 53.6682C108.96 53.9034 107.968 54.0697 106.993 54.3565C106.018 54.6261 105.037 54.8957 104.056 55.1882C103.087 55.5151 102.123 55.8592 101.159 56.2091C100.202 56.5705 99.2667 57.0121 98.3375 57.4308C98.0507 57.5742 97.7582 57.7119 97.4599 57.861C97.1732 58.0216 96.8806 58.1822 96.5824 58.3428C95.9973 58.6697 95.4008 59.0024 94.7929 59.3408C93.5826 60.0233 92.3896 60.8321 91.1564 61.6007C88.7589 63.2755 86.3213 65.0593 84.1016 67.084C84.2163 67.2503 83.6255 67.7034 83.138 68.0877C82.6619 68.4835 82.3005 68.8276 82.8168 68.6957C81.7098 69.5274 80.5225 70.3418 79.4557 71.2825C78.9165 71.7413 78.3773 72.1887 77.8611 72.6476C77.3679 73.1236 76.8861 73.594 76.4329 74.0528C75.5038 74.9533 74.7639 75.9054 74.1616 76.7314C73.5479 77.5516 73.1636 78.3374 72.9915 78.9683C72.9112 79.0715 72.8309 79.1805 72.7506 79.2837C72.4925 79.5705 72.1713 80.0122 71.8559 80.5112C68.8274 83.8666 66.8142 87.1875 65.2484 90.5543C63.6883 93.9327 62.5469 97.3511 61.4915 101.217C61.2736 101.871 61.0613 102.525 60.8434 103.179C60.6541 103.844 60.4591 104.509 60.2641 105.18C60.1666 105.513 60.0691 105.851 59.9716 106.19C59.8855 106.528 59.7995 106.872 59.7135 107.216C59.5356 107.899 59.3636 108.587 59.1858 109.281C59.4095 108.375 59.7708 107.262 60.092 106.138C60.4763 105.037 60.8147 103.918 61.0155 103.001C61.176 102.399 61.3366 101.802 61.4915 101.217C62.6272 97.8444 63.9406 94.6095 65.4491 91.4893C66.992 88.392 68.7357 85.4152 70.7145 82.5875C70.9783 82.077 71.4085 81.2568 71.8444 80.5112C72.1828 80.1384 72.5327 79.7827 72.8883 79.4214C72.9055 79.278 72.9399 79.1289 72.9801 78.974C75.0105 76.3241 77.4596 73.6972 80.0579 71.4087C82.6447 69.1087 85.2831 67.0266 87.6519 65.3403C88.7647 64.5431 89.9691 63.872 91.1679 63.1665C91.7644 62.8052 92.3953 62.5069 93.0148 62.1857C93.64 61.876 94.2709 61.5605 94.9018 61.2508C97.4771 60.1151 100.127 59.0712 102.874 58.2969C108.346 56.6909 114.059 55.842 119.646 55.7216C118.257 55.8191 116.887 56.0715 115.527 56.2607C114.845 56.3468 114.174 56.5189 113.503 56.6393C112.832 56.777 112.16 56.8974 111.495 57.0523C108.851 57.7061 106.258 58.4288 103.769 59.3752C105.329 58.7902 106.918 58.3887 108.472 57.9184C110.05 57.5513 111.604 57.1211 113.17 56.8573C116.29 56.2206 119.405 55.8822 122.485 55.6872C123.443 55.7159 124.377 55.7159 125.318 55.756L128.278 55.951L131.22 56.2837C130.308 56.1403 129.396 55.9912 128.496 55.8478C127.584 55.7445 126.677 55.6585 125.766 55.5667C129.471 55.4922 133.147 55.7789 136.755 56.2722C141.711 57.0924 146.638 58.4805 151.375 60.4478C156.107 62.4323 160.644 64.9732 164.848 68.0189C173.28 74.0815 180.214 82.3064 184.831 91.5409C184.424 91.3 183.988 91.0017 183.541 90.6691C181.138 86.373 178.287 82.3237 175.121 78.865C171.961 75.4007 168.496 72.5386 165.055 70.5082C167.223 72.269 169.058 73.766 170.773 75.3605C171.204 75.762 171.634 76.1578 172.064 76.5593C172.5 76.9608 172.896 77.4024 173.32 77.8326C173.739 78.2743 174.163 78.7216 174.605 79.1805C175.012 79.668 175.436 80.167 175.872 80.6833C175.781 80.7521 175.683 80.9012 175.339 80.5972C177.708 83.1094 180.26 86.2927 182.25 89.7055C181.138 88.8853 180.019 87.9274 178.792 87.0785C178.081 86.3788 177.346 85.4094 176.469 84.4C176.039 83.8895 175.614 83.3389 175.144 82.7997C174.662 82.2778 174.169 81.7386 173.681 81.2052C171.594 78.865 169.437 76.6568 167.12 74.6665C165.996 73.6284 164.774 72.7221 163.604 71.7585L161.768 70.4221C161.459 70.2042 161.16 69.9747 160.851 69.7625L159.904 69.1431C154.886 65.7877 149.402 63.1894 143.552 61.4286C138.407 59.6792 133.061 58.4805 127.664 58.0273C122.272 57.5857 116.841 57.7635 111.575 58.6583C116.76 57.5054 121.905 57.0465 126.924 57.0809C131.949 57.1268 136.864 57.666 141.642 58.7213L141.671 58.7099ZM184.407 134.484C184.373 134.954 184.344 135.425 184.31 135.906C184.258 136.382 184.206 136.864 184.155 137.346C184.229 137.208 184.304 137.076 184.384 136.95C184.585 136.09 184.539 135.189 184.401 134.478L184.407 134.484ZM177.312 154.358C178.964 151.72 180.49 148.422 181.62 144.774C182.767 141.132 183.552 137.174 183.965 133.274C183.92 133.222 183.868 133.188 183.822 133.182C183.277 136.423 182.514 140.002 181.465 143.644C180.409 147.28 179.016 150.968 177.312 154.364V154.358ZM158.837 169.936C158.883 169.925 158.935 169.913 158.987 169.902C158.964 169.879 158.941 169.862 158.918 169.839C158.895 169.873 158.866 169.902 158.837 169.942V169.936ZM64.887 154.702C67.0838 157.776 69.5444 161.16 72.4409 164.459C75.3317 167.757 78.6641 170.969 82.3636 173.687C84.5317 175.396 87.1873 176.377 90.3076 178.201C92.3093 179.262 93.9841 179.962 95.5786 180.541C96.3644 180.857 97.1445 181.098 97.936 181.356C98.7218 181.62 99.5133 181.895 100.379 182.142C99.5821 181.723 98.8136 181.235 98.0507 180.765C99.4502 181.448 100.781 181.866 102.026 182.251C102.651 182.44 103.276 182.56 103.878 182.704C104.486 182.83 105.071 182.99 105.679 183.077C106.884 183.266 108.071 183.512 109.35 183.702C109.987 183.805 110.635 183.954 111.317 184.075C112.006 184.189 112.717 184.333 113.468 184.51C113.485 184.407 113.721 184.298 114.065 184.218C114.409 184.126 114.851 184.075 115.286 184.126C119.605 184.442 123.982 184.832 127.417 184.115C131.708 183.558 135.958 182.664 139.141 181.276C139.984 181.069 141.407 179.905 142.938 179.165L145.777 177.903L148.542 176.515C148.433 176.509 148.341 176.503 148.244 176.486C147.481 176.83 146.718 177.192 145.961 177.57C145.198 177.943 144.412 178.27 143.655 178.66C143.368 178.798 143.087 178.953 142.789 179.09C142.491 179.216 142.192 179.348 141.888 179.48C141.281 179.744 140.661 180.008 140.042 180.278C138.768 180.725 137.483 181.276 136.147 181.643C133.509 182.509 130.773 183.054 128.226 183.444C115.476 185.095 102.915 183.054 91.7013 177.616L89.8946 176.739L88.9769 176.308C88.6729 176.159 88.3804 175.999 88.0821 175.844L86.2868 174.903C85.7018 174.565 85.134 174.203 84.5604 173.842C81.0788 171.726 77.626 168.743 74.695 165.715C71.7412 162.698 69.3207 159.652 67.2731 157.65C66.9461 157.3 66.5504 156.727 66.1259 156.165C65.7015 155.603 65.3115 155.018 64.9042 154.702H64.887ZM52.4005 147.928C54.6144 153.09 57.3962 158.281 60.614 163.07C63.8546 167.843 67.5082 172.202 71.1619 175.924C72.6359 177.415 74.9933 179.423 77.7235 181.39C80.4709 183.34 83.6542 185.153 86.6023 186.518C89.5791 187.831 92.2864 188.726 94.0816 188.979C95.8769 189.248 96.6914 189.013 96.0088 188.061C93.313 188.181 88.0247 186.449 82.312 182.887C79.4557 181.121 76.4903 178.935 73.7257 176.389C70.9496 173.859 68.3227 171.032 66.0284 168.118C63.7514 165.187 61.7783 162.199 60.1379 159.423C59.7249 158.729 59.3636 158.035 58.9908 157.375C58.6294 156.71 58.2451 156.079 57.9411 155.448C57.6199 154.823 57.3102 154.22 57.0119 153.647C56.8628 153.36 56.7137 153.085 56.5703 152.815C56.4384 152.54 56.3065 152.276 56.186 152.012C55.687 150.974 55.2052 150.085 54.798 149.345C54.4137 148.599 54.0581 148.014 53.7483 147.63C53.1289 146.861 52.6643 146.867 52.4119 147.928H52.4005ZM72.5442 64.6578C69.1601 67.9214 66.1546 71.2882 62.7992 75.3605C65.6843 71.5119 68.9479 67.9214 72.5442 64.6578ZM55.3486 106.316C55.5608 104.693 55.9508 103.093 56.3122 101.458C56.7596 99.8576 57.1898 98.2229 57.7748 96.6342C58.3025 95.0224 58.985 93.4623 59.6446 91.8793C60.3788 90.3364 61.0957 88.7706 61.9504 87.2735C62.3576 86.5164 62.7706 85.7593 63.2294 85.0309C63.6825 84.2967 64.1185 83.5511 64.5888 82.8284C65.5524 81.4002 66.5102 79.9663 67.5713 78.6127C68.0818 77.9244 68.598 77.2361 69.1544 76.588C69.705 75.9341 70.2384 75.263 70.7948 74.6206C71.9419 73.3588 73.0546 72.0797 74.2534 70.8982C77.8898 67.1987 82.4095 64.0498 87.0382 61.4573C91.6841 58.859 96.416 56.7942 100.695 54.7121L100.511 54.1328C100.19 54.2877 99.8804 54.4655 99.5707 54.649C98.6874 54.9243 97.8442 55.171 97.024 55.4004C96.2038 55.6241 95.4352 55.9109 94.6667 56.146C93.1295 56.6106 91.6956 57.1555 90.2387 57.7406C90.3936 57.6488 90.5599 57.5513 90.709 57.4595C90.428 57.6029 90.1527 57.7463 89.8659 57.8897C87.9559 58.7328 86.0058 59.7079 83.9582 61.1533C83.0118 61.8014 82.1113 62.547 81.1878 63.264L80.1726 63.981L79.1861 64.7438L77.2245 66.281C75.9741 67.3822 74.6778 68.4204 73.502 69.5962C71.0701 71.856 68.8791 74.3511 66.8544 76.9034C66.3668 77.5573 65.8793 78.2054 65.3918 78.8536C64.9042 79.5017 64.4798 80.1842 64.0267 80.8496C63.1147 82.1631 62.3404 83.5568 61.5546 84.9047C60.0748 87.6636 58.7671 90.4224 57.8264 93.21C57.4995 94.0531 57.1898 94.8848 56.9431 95.7279C56.685 96.5653 56.4212 97.3855 56.1975 98.2057C55.7845 99.8633 55.383 101.475 55.1077 103.121C54.7693 104.744 54.5972 106.402 54.3449 108.054C54.1843 109.729 53.972 111.409 53.8688 113.164C53.9491 112.671 54.0523 112.12 54.1671 111.541C54.2932 110.962 54.4538 110.36 54.5915 109.752C54.7291 109.144 54.8668 108.536 54.993 107.956C55.1364 107.383 55.2568 106.832 55.3314 106.333L55.3486 106.316Z" fill="#FFAB40"/>
    <path d="M123.792 55.4346C128.077 55.2797 132.43 55.5493 136.772 56.2662C138.464 56.467 140.122 56.8111 141.802 57.1151C143.454 57.4994 145.129 57.8493 146.764 58.3368C154.576 60.6426 162.548 65.0017 169.408 70.9438C176.291 76.8631 182.015 84.308 186.179 92.1486C186.948 92.3494 187.533 92.1486 187.797 91.2768C183.667 82.2661 177.26 74.3164 169.586 68.076C161.906 61.8069 153.016 57.1954 143.632 54.1498C143.483 54.1268 143.322 54.0982 143.173 54.0752C138.963 53.4558 133.566 52.452 127.83 52.2283C122.118 51.9588 116.107 52.3947 111.111 53.7253C106.132 55.1478 101.332 56.8972 96.7831 59.0882C92.2348 61.2792 87.9387 63.9234 84.1016 67.0952C85.5699 66.0742 87.1128 65.191 88.627 64.279C90.1871 63.4473 91.7185 62.5755 93.3188 61.8585C94.8846 61.067 96.525 60.4418 98.131 59.7593C99.7772 59.18 101.4 58.5433 103.081 58.0787C104.739 57.5396 106.442 57.1667 108.134 56.7538C109.843 56.4326 111.553 56.0712 113.29 55.882C115.017 55.6238 116.766 55.5321 118.516 55.4174C119.393 55.4002 120.271 55.3887 121.148 55.3715C122.026 55.3485 122.909 55.4231 123.787 55.446L123.792 55.4346Z" fill="#FFAB40"/>
    <path d="M63.4009 129.379C62.9879 126.069 62.8159 122.697 62.9879 119.301C63.1256 114.564 63.8196 110.09 64.8635 105.782C65.9303 101.48 67.3757 97.3451 69.2914 93.3301C66.1483 99.0199 63.7737 105.18 62.4545 111.615C61.8982 114.856 61.7777 117.913 62.0301 120.844C62.2652 123.775 62.7184 126.574 63.3952 129.373L63.4009 129.379Z" fill="#FFAB40"/>
    <path d="M72.7785 86.9859C72.4573 87.5135 72.1246 88.0183 71.8206 88.5517C71.5224 89.0851 71.2299 89.6128 70.9373 90.1405L70.4957 90.9263L70.0942 91.735L69.2912 93.3353C71.66 89.1367 74.482 85.2078 77.6997 81.6345C80.9461 78.0841 84.594 74.9065 88.5631 72.1706C94.987 67.5247 102.426 64.0948 110.273 62.1332C118.125 60.1658 126.424 59.7013 134.638 60.7681C135.567 60.9172 136.496 61.0549 137.414 61.2155C138.326 61.4162 139.238 61.6112 140.15 61.812C132.745 59.6152 124.933 58.795 117.305 59.3686C113.49 59.6611 109.716 60.2691 106.063 61.2499C102.409 62.2307 98.8758 63.5327 95.5147 65.1043C94.683 65.5172 93.8399 65.89 93.0312 66.3374C92.2224 66.7848 91.4194 67.2322 90.6164 67.6738C89.8421 68.1614 89.0678 68.6432 88.2935 69.125C87.5192 69.5953 86.7965 70.1574 86.0566 70.6679C83.1256 72.7843 80.4356 75.1302 78.0094 77.6482C75.6004 80.1833 73.484 82.8963 71.6428 85.7011C71.2012 86.4123 70.7194 87.0948 70.3179 87.8233C69.9106 88.546 69.5092 89.2629 69.1077 89.9741C68.3792 91.4425 67.6451 92.8821 67.06 94.3677C66.8879 94.8036 66.67 95.2739 66.4922 95.7385C71.8264 84.9325 80.1431 75.7095 90.3985 69.4175C83.3092 74.0232 77.2695 80.0572 72.7728 86.9916L72.7785 86.9859Z" fill="#FFAB40"/>
    <path d="M119.658 55.7089C120.616 55.6974 121.557 55.6343 122.503 55.6745C123.604 55.6401 124.694 55.5368 125.784 55.554C125.119 55.4795 124.453 55.4623 123.794 55.4336C123.1 55.4623 122.406 55.491 121.717 55.5196C121.029 55.5827 120.341 55.6458 119.658 55.7089Z" fill="#FFAB40"/>
    <path d="M90.2448 57.7461C90.1243 57.792 89.9981 57.8436 89.8777 57.8952C86.9296 59.5069 83.9757 61.2334 81.1996 63.2695C77.4772 66.2234 73.8637 69.596 70.5312 73.3299C73.617 70.0147 77.0068 67.0149 80.4024 64.4109C83.8036 61.8184 87.2049 59.6389 90.2505 57.7518L90.2448 57.7461Z" fill="#FFAB40"/>
    <path d="M63.2571 72.2188C62.5 73.0619 61.0775 74.8227 60.3606 75.706C60.0451 76.3312 59.7354 76.9507 59.4199 77.5759C60.0681 76.7442 60.6875 75.8724 61.393 75.0751C62.0124 74.1287 62.6032 73.1479 63.2571 72.2188Z" fill="#FFAB40"/>
    <path d="M47.5646 133.864C45.9242 124.36 46.1479 114.787 48.0005 105.668C49.8417 96.5421 53.329 87.8698 58.2272 80.0348C58.4223 79.6219 58.6001 79.2032 58.8008 78.7959L59.4145 77.5742C58.4452 78.7959 57.5963 80.1037 56.7188 81.3884C56.2714 82.0251 55.8928 82.7019 55.4856 83.3615C55.0898 84.0269 54.6769 84.6865 54.304 85.3633C52.8242 88.082 51.4591 90.8408 50.3923 93.6857C48.1898 99.3468 46.8419 105.18 46.4404 110.824C46.2454 113.049 46.4175 116.41 46.2913 118.59C45.7235 129 47.7654 138.912 51.3846 147.882C49.7557 143.552 48.4881 139.009 47.6335 134.26C47.6105 134.128 47.5876 133.996 47.5646 133.864Z" fill="#FFAB40"/>
    <ellipse cx="120.248" cy="120.123" rx="14.5526" ry="14.5526" fill="#FFAB40"/>
</svg>
